<svg width="1258" height="221" viewBox="0 0 1258 221" fill="none" xmlns="http://www.w3.org/2000/svg">
<path d="M45.5051 119.227V169.951C45.5051 174.191 47.3536 176.312 51.0505 176.312C65.2947 176.312 78.1252 176.094 89.5423 175.659C114.442 175.659 130.915 165.873 138.962 146.301C140.267 142.822 141.3 139.288 142.061 135.7C142.822 132.112 143.529 127.49 144.181 121.836C144.942 116.182 145.431 112.648 145.649 111.235C147.389 95.142 144.072 79.43 135.7 64.0986C127.545 49.202 112.703 41.7538 91.1733 41.7538C75.5156 41.2101 62.7394 41.1014 52.8446 41.4276C46.5381 41.4276 43.711 44.309 44.3634 50.0719C45.342 53.1164 45.5595 59.3143 45.0158 68.6654C44.5809 77.9077 44.4721 84.0512 44.6896 87.0957C44.9071 89.8141 44.9071 95.1964 44.6896 103.243C44.5809 111.18 44.8527 116.508 45.5051 119.227ZM0.326231 106.505H2.94447e-05V48.7671C2.94447e-05 30.7173 0.108763 19.1371 0.326231 14.0267C0.761166 5.54542 4.89305 1.3048 12.7219 1.3048H74.2108C76.2768 1.41353 80.0825 1.52227 85.6279 1.631C91.282 1.73974 96.0663 1.90284 99.9807 2.1203C103.895 2.33777 107.646 2.71834 111.235 3.26201C143.202 8.48123 165.384 24.0845 177.78 50.0719C187.566 70.4051 191.535 92.8043 189.686 117.269C188.599 130.535 187.076 140.212 185.119 146.301C178.595 168.266 167.722 185.228 152.499 197.189C137.385 209.149 118.629 215.13 96.2294 215.13C93.6198 214.477 91.8257 214.26 90.8471 214.477C81.8222 215.782 69.8615 216.326 54.965 216.108C40.0684 215.891 28.2164 216 19.409 216.435H15.3315C9.13367 215.456 5.05615 214.042 3.09894 212.194C1.25047 210.345 0.326231 206.322 0.326231 200.125V165.71V106.505ZM226.384 152.336C228.232 162.122 232.31 169.951 238.616 175.823C244.923 181.694 252.969 184.63 262.755 184.63C271.128 184.63 278.467 182.02 284.774 176.801C291.189 171.582 295.321 165.112 297.169 157.392C300.431 142.713 299.725 128.415 295.049 114.497C292.657 107.211 288.471 101.557 282.49 97.5342C276.619 93.511 269.823 91.4995 262.103 91.4995C253.187 91.4995 245.412 94.3265 238.779 99.9807C232.147 105.635 227.852 113.736 225.894 124.283C225.46 126.784 225.296 131.35 225.405 137.983C225.514 144.616 225.84 149.4 226.384 152.336ZM259.33 55.4542C280.316 55.4542 298.148 60.8365 312.827 71.6012C327.615 82.2571 336.749 97.6973 340.228 117.922C342.838 132.818 342.511 147.606 339.249 162.285C335.009 181.422 325.875 195.993 311.848 205.996C297.822 215.891 280.914 220.838 261.124 220.838C243.944 220.838 228.232 215.837 213.988 205.833C199.744 195.721 190.61 182.564 186.587 166.363C180.824 142.659 182.727 118.465 192.296 93.7829C192.622 92.8043 193.057 91.8257 193.601 90.8471C194.144 89.8685 194.688 89.053 195.232 88.4006C195.775 87.6394 196.482 86.7695 197.352 85.7909C198.222 84.7036 198.874 83.8337 199.309 83.1813C214.532 64.6966 234.539 55.4542 259.33 55.4542ZM406.447 219.697C392.638 220.458 379.263 218.392 366.324 213.499C358.604 210.454 351.428 204.691 344.795 196.21C338.271 187.729 334.302 179.193 332.888 170.603C332.236 167.45 332.617 164.732 334.03 162.448C335.335 160.165 337.51 158.697 340.554 158.045C350.666 156.196 357.897 155.272 362.247 155.272C365.944 155.272 368.825 155.815 370.891 156.903C373.066 157.99 374.316 160.219 374.642 163.59C376.817 177.399 387.853 184.304 407.752 184.304C414.602 184.304 420.419 182.999 425.203 180.389C428.357 179.085 430.314 176.964 431.075 174.028C432.815 168.7 431.401 165.221 426.834 163.59C423.029 162.068 415.309 159.621 403.674 156.25C402.804 155.924 401.391 155.761 399.434 155.761C397.476 155.652 396.008 155.489 395.03 155.272C392.638 154.293 386.929 152.39 377.904 149.563C368.879 146.627 362.138 143.964 357.68 141.571C349.525 136.461 343.599 129.339 339.902 120.205C335.987 109.767 335.77 99.3283 339.249 88.8899C342.838 78.4514 348.872 71.2206 357.354 67.1975C358.006 66.7625 358.985 65.947 360.289 64.751C361.703 63.4462 362.953 62.5219 364.041 61.9782C365.237 61.4346 366.65 61.3802 368.281 61.8151C370.13 62.1413 372.304 61.4346 374.805 59.6948C377.306 57.9551 379.372 57.0852 381.003 57.0852C382.199 57.194 383.45 57.194 384.754 57.0852C386.168 56.9765 387.745 56.759 389.484 56.4328C391.333 56.1066 392.746 55.8892 393.725 55.7804C410.47 53.9319 426.291 56.3785 441.187 63.12C453.692 68.2304 462.282 78.2339 466.957 93.1305C468.045 98.1322 468.48 101.503 468.262 103.243C467.827 105.852 467.12 107.755 466.142 108.951C465.272 110.039 463.641 110.8 461.249 111.235C456.138 112.105 448.092 113.083 437.11 114.17C433.522 114.388 430.858 112.757 429.118 109.277C428.465 108.19 428.139 107.375 428.139 106.831C427.487 103.895 426.291 101.394 424.551 99.3283C422.811 97.1536 420.691 95.5226 418.19 94.4353C415.798 93.2392 413.297 92.4237 410.688 91.9888C408.078 91.4451 405.305 91.1733 402.369 91.1733C390.952 91.1733 383.613 93.0761 380.351 96.8818C377.089 100.905 377.524 104.113 381.656 106.505C383.939 107.592 386.277 108.516 388.669 109.277C391.061 110.039 394.106 110.908 397.803 111.887C401.499 112.866 403.946 113.518 405.142 113.844C427.324 120.042 439.991 123.63 443.145 124.609C451.3 127.545 458.367 132.22 464.348 138.636C470.328 145.051 473.536 152.282 473.971 160.328C474.623 171.854 473.481 180.661 470.545 186.75C464.456 199.69 453.529 209.149 437.762 215.13C427.106 219.044 416.668 220.566 406.447 219.697ZM718.132 139.614C714.979 139.614 710.684 139.669 705.247 139.777C699.919 139.777 695.135 139.777 690.894 139.777C686.654 139.777 682.631 139.723 678.825 139.614C672.736 139.614 668.495 139.397 666.103 138.962C660.884 138.309 658.22 135.537 658.111 130.644C657.676 123.358 657.676 116.128 658.111 108.951C658.546 106.015 659.416 104.004 660.721 102.917C662.134 101.72 664.472 100.905 667.734 100.47C668.495 100.47 669.528 100.416 670.833 100.307C672.247 100.198 673.334 100.144 674.095 100.144C682.685 100.144 695.461 100.089 712.424 99.9807C729.495 99.872 742.326 99.8176 750.915 99.8176C754.83 99.8176 757.548 100.416 759.071 101.612C760.593 102.808 761.571 105.254 762.006 108.951C762.659 114.932 762.985 120.912 762.985 126.892V174.355C762.985 183.053 759.397 189.414 752.22 193.437C735.693 203.441 721.231 210.4 708.836 214.314C696.549 218.229 681.652 220.186 664.146 220.186C645.552 220.186 626.687 215.619 607.55 206.485C586.564 196.264 571.233 180.226 561.556 158.371C550.682 133.253 548.997 106.07 556.5 76.8204C559 66.9256 563.676 56.4328 570.526 45.342C577.376 34.2511 584.825 26.1505 592.871 21.04C613.204 7.01332 637.832 -5.30481e-06 666.756 -5.30481e-06C676.215 -5.30481e-06 685.186 0.869865 693.667 2.60961C702.148 4.34935 710.249 7.06769 717.969 10.7646C725.689 14.3529 732.539 19.3546 738.52 25.7699C744.609 32.0765 749.393 39.5247 752.873 48.1147C753.199 49.202 754.123 50.8874 755.645 53.1708C757.276 55.4542 758.255 57.5202 758.581 59.3686C759.234 63.6093 759.016 66.9256 757.929 69.3178C756.841 71.7099 754.504 73.4497 750.915 74.537C748.632 75.2981 742.054 77.1466 731.18 80.0824C724.874 81.3872 720.416 78.9407 717.806 72.7429C716.393 70.1333 714.49 65.947 712.098 60.1841C709.27 53.0077 702.746 47.5167 692.525 43.711C682.304 39.9053 672.464 38.0024 663.004 38.0024C650.609 38.0024 639.3 40.7752 629.079 46.3206C618.858 51.7573 611.138 59.6948 605.919 70.1333C597.873 86.8783 595.209 105.58 597.927 126.24C600.537 143.637 608.039 157.012 620.435 166.363C632.831 175.714 647.945 180.389 665.777 180.389C678.716 180.389 691.058 177.943 702.801 173.05C704.214 172.506 706.063 171.582 708.346 170.277C710.63 168.864 712.152 167.994 712.913 167.667C717.045 165.71 719.111 162.285 719.111 157.392C719.111 156.522 719.165 154.783 719.274 152.173C719.491 149.563 719.491 147.334 719.274 145.486C719.165 143.529 718.785 141.571 718.132 139.614ZM823.169 184.956C831.65 184.956 839.86 181.803 847.797 175.496C855.735 169.081 860.139 161.687 861.008 153.315C861.117 151.466 860.682 150.107 859.704 149.237C858.834 148.258 857.366 147.824 855.3 147.932C854.865 148.15 854.213 148.313 853.343 148.422C852.582 148.53 851.984 148.693 851.549 148.911C848.395 149.237 843.339 150.161 836.38 151.684C829.53 153.097 824.148 153.967 820.233 154.293C815.449 154.293 810.665 155.598 805.88 158.208C801.205 160.817 798.867 164.297 798.867 168.646C798.867 175.17 801.857 179.302 807.838 181.042C813.383 183.651 818.494 184.956 823.169 184.956ZM834.26 53.497C841.219 53.1708 850.352 53.8232 861.661 55.4542C871.121 57.4114 879.439 61.1084 886.615 66.5451C893.9 71.873 898.358 78.7232 899.989 87.0957C902.164 102.318 903.088 114.714 902.762 124.283C902.653 128.958 902.98 144.181 903.741 169.951C904.393 184.956 906.405 196.21 909.776 203.713C912.929 209.802 910.917 213.499 903.741 214.804C898.522 215.673 893.737 216.108 889.388 216.108C884.712 216.108 880.58 215.891 876.992 215.456C874.383 215.13 871.719 213.118 869 209.421C867.043 206.485 865.466 205.018 864.27 205.018C863.401 205.018 861.389 205.942 858.236 207.79C845.405 215.293 830.617 219.044 813.872 219.044C805.609 219.044 797.345 217.631 789.081 214.804C780.817 211.868 773.913 207.736 768.367 202.408C760.321 195.34 755.917 185.445 755.156 172.724C754.395 160.002 758.472 148.748 767.389 138.962C778.697 127.653 791.854 121.184 806.859 119.553L849.591 112.866C850.679 112.866 851.44 112.648 851.875 112.213C852.201 111.996 853.615 111.615 856.115 111.072C858.616 110.419 860.03 109.223 860.356 107.483C860.791 104.982 860.302 102.318 858.888 99.4914C857.583 96.5556 855.735 94.544 853.343 93.4567C847.362 91.282 843.665 90.1947 842.252 90.1947C836.163 89.5423 828.932 89.651 820.559 90.5209C815.231 91.3907 810.991 93.3479 807.838 96.3925C804.793 99.3283 802.347 103.515 800.498 108.951C799.193 112.866 798.106 115.149 797.236 115.801C796.475 116.345 794.083 116.617 790.06 116.617C784.297 117.161 776.414 115.91 766.41 112.866C761.082 111.561 758.962 107.918 760.049 101.938C765.16 79.7562 777.881 65.4577 798.215 59.0424C810.067 54.8018 822.082 52.9533 834.26 53.497ZM913.853 105.2C913.853 102.699 913.744 101.014 913.527 100.144C913.418 96.6643 911.624 94.6527 908.144 94.1091H905.535C901.294 93.4567 898.63 92.4781 897.543 91.1733C896.347 89.8685 895.64 86.987 895.423 82.5289C895.423 81.1154 895.368 78.9407 895.26 76.0049C895.151 73.0691 895.096 70.8944 895.096 69.4809C895.64 63.3918 898.685 59.9123 904.23 59.0424C904.882 58.9337 905.752 58.8793 906.84 58.8793C907.927 58.8793 908.797 58.825 909.449 58.7162C911.95 58.7162 913.201 57.4114 913.201 54.8018C913.853 45.9944 914.07 39.9597 913.853 36.6976C913.201 32.0221 915.103 27.9989 919.562 24.6282C921.845 22.5623 924.618 20.8225 927.88 19.409C928.858 18.8653 930.217 18.2129 931.957 17.4518C933.806 16.6906 935.382 15.9295 936.687 15.1684C938.101 14.4072 939.405 13.5917 940.602 12.7218C941.363 12.1782 943.7 11.4714 947.615 10.6015C949.137 10.3841 950.551 10.7646 951.855 11.7432C953.269 12.6131 954.193 13.8092 954.628 15.3315C955.933 19.5721 956.477 22.4535 956.259 23.9758C955.716 26.6941 955.389 29.6299 955.281 32.7832C955.281 35.8278 955.389 39.3073 955.607 43.2217C955.824 47.0274 955.933 49.8544 955.933 51.7029C955.933 55.1824 956.314 57.3571 957.075 58.2269C957.836 58.9881 959.793 59.3686 962.946 59.3686C963.599 59.3686 965.067 59.2599 967.35 59.0424C969.742 58.825 971.264 58.825 971.917 59.0424C977.354 59.2599 980.398 62.1957 981.05 67.8499C981.159 68.2848 981.377 69.8614 981.703 72.5798C982.138 75.2981 982.355 77.1466 982.355 78.1252C982.464 79.1038 982.41 80.6261 982.192 82.692C982.083 84.6492 981.703 86.4977 981.05 88.2375C979.854 90.7383 978.767 92.3693 977.788 93.1305C976.919 93.7829 975.179 94.1091 972.569 94.1091H960.989C960.663 94.1091 960.228 94.1091 959.684 94.1091C959.249 94.1091 958.923 94.1091 958.706 94.1091C958.488 94.1091 958.162 94.1634 957.727 94.2722C957.401 94.2722 957.183 94.3265 957.075 94.4353C956.966 94.544 956.803 94.7615 956.585 95.0877C956.368 95.3051 956.205 95.6313 956.096 96.0663C956.096 96.5012 956.042 97.0449 955.933 97.6973C955.933 98.241 955.933 98.9477 955.933 99.8176C955.933 102.101 955.824 107.646 955.607 116.454C955.389 125.153 955.281 130.752 955.281 133.253C955.281 137.494 955.444 142.767 955.77 149.074C956.205 155.381 956.477 160.002 956.585 162.938C956.694 165.765 956.585 168.918 956.259 172.397C955.933 172.941 956.042 174.137 956.585 175.986C957.238 179.248 959.249 181.15 962.62 181.694H971.591C977.354 181.694 980.833 184.576 982.029 190.338C983.334 196.536 984.313 202.897 984.965 209.421C985.617 213.009 983.986 215.673 980.072 217.413C972.895 219.479 965.61 220.512 958.216 220.512C951.475 220.512 945.277 219.697 939.623 218.066C932.664 216.761 926.847 213.009 922.171 206.812C917.496 200.505 914.94 193.6 914.505 186.098C914.07 178.595 913.853 151.629 913.853 105.2ZM1008.61 152.336C1010.46 162.122 1014.54 169.951 1020.85 175.823C1027.15 181.694 1035.2 184.63 1044.99 184.63C1053.36 184.63 1060.7 182.02 1067 176.801C1073.42 171.582 1077.55 165.112 1079.4 157.392C1082.66 142.713 1081.96 128.415 1077.28 114.497C1074.89 107.211 1070.7 101.557 1064.72 97.5342C1058.85 93.511 1052.05 91.4995 1044.33 91.4995C1035.42 91.4995 1027.64 94.3265 1021.01 99.9807C1014.38 105.635 1010.08 113.736 1008.13 124.283C1007.69 126.784 1007.53 131.35 1007.64 137.983C1007.74 144.616 1008.07 149.4 1008.61 152.336ZM1041.56 55.4542C1062.55 55.4542 1080.38 60.8365 1095.06 71.6012C1109.85 82.2571 1118.98 97.6973 1122.46 117.922C1125.07 132.818 1124.74 147.606 1121.48 162.285C1117.24 181.422 1108.11 195.993 1094.08 205.996C1080.05 215.891 1063.14 220.838 1043.35 220.838C1026.18 220.838 1010.46 215.837 996.219 205.833C981.975 195.721 972.841 182.564 968.818 166.363C963.055 142.659 964.958 118.465 974.526 93.7829C974.853 92.8043 975.288 91.8257 975.831 90.8471C976.375 89.8685 976.919 89.053 977.462 88.4006C978.006 87.6394 978.713 86.7695 979.583 85.7909C980.452 84.7036 981.105 83.8337 981.54 83.1813C996.763 64.6966 1016.77 55.4542 1041.56 55.4542ZM1188.68 219.697C1174.87 220.458 1161.49 218.392 1148.55 213.499C1140.83 210.454 1133.66 204.691 1127.03 196.21C1120.5 187.729 1116.53 179.193 1115.12 170.603C1114.47 167.45 1114.85 164.732 1116.26 162.448C1117.57 160.165 1119.74 158.697 1122.78 158.045C1132.9 156.196 1140.13 155.272 1144.48 155.272C1148.17 155.272 1151.06 155.815 1153.12 156.903C1155.3 157.99 1156.55 160.219 1156.87 163.59C1159.05 177.399 1170.08 184.304 1189.98 184.304C1196.83 184.304 1202.65 182.999 1207.43 180.389C1210.59 179.085 1212.54 176.964 1213.31 174.028C1215.05 168.7 1213.63 165.221 1209.07 163.59C1205.26 162.068 1197.54 159.621 1185.9 156.25C1185.04 155.924 1183.62 155.761 1181.66 155.761C1179.71 155.652 1178.24 155.489 1177.26 155.272C1174.87 154.293 1169.16 152.39 1160.13 149.563C1151.11 146.627 1144.37 143.964 1139.91 141.571C1131.76 136.461 1125.83 129.339 1122.13 120.205C1118.22 109.767 1118 99.3283 1121.48 88.8899C1125.07 78.4514 1131.1 71.2206 1139.58 67.1975C1140.24 66.7625 1141.22 65.947 1142.52 64.751C1143.93 63.4462 1145.18 62.5219 1146.27 61.9782C1147.47 61.4346 1148.88 61.3802 1150.51 61.8151C1152.36 62.1413 1154.54 61.4346 1157.04 59.6948C1159.54 57.9551 1161.6 57.0852 1163.23 57.0852C1164.43 57.194 1165.68 57.194 1166.99 57.0852C1168.4 56.9765 1169.98 56.759 1171.72 56.4328C1173.56 56.1066 1174.98 55.8892 1175.96 55.7804C1192.7 53.9319 1208.52 56.3785 1223.42 63.12C1235.92 68.2304 1244.51 78.2339 1249.19 93.1305C1250.28 98.1322 1250.71 101.503 1250.49 103.243C1250.06 105.852 1249.35 107.755 1248.37 108.951C1247.5 110.039 1245.87 110.8 1243.48 111.235C1238.37 112.105 1230.32 113.083 1219.34 114.17C1215.75 114.388 1213.09 112.757 1211.35 109.277C1210.7 108.19 1210.37 107.375 1210.37 106.831C1209.72 103.895 1208.52 101.394 1206.78 99.3283C1205.04 97.1536 1202.92 95.5226 1200.42 94.4353C1198.03 93.2392 1195.53 92.4237 1192.92 91.9888C1190.31 91.4451 1187.54 91.1733 1184.6 91.1733C1173.18 91.1733 1165.84 93.0761 1162.58 96.8818C1159.32 100.905 1159.75 104.113 1163.89 106.505C1166.17 107.592 1168.51 108.516 1170.9 109.277C1173.29 110.039 1176.34 110.908 1180.03 111.887C1183.73 112.866 1186.18 113.518 1187.37 113.844C1209.55 120.042 1222.22 123.63 1225.38 124.609C1233.53 127.545 1240.6 132.22 1246.58 138.636C1252.56 145.051 1255.77 152.282 1256.2 160.328C1256.85 171.854 1255.71 180.661 1252.78 186.75C1246.69 199.69 1235.76 209.149 1219.99 215.13C1209.34 219.044 1198.9 220.566 1188.68 219.697Z" fill="#31323B"/>
</svg>
