<svg width="1575" height="278" viewBox="0 0 1575 278" fill="none" xmlns="http://www.w3.org/2000/svg">
<path d="M1469.26 190.063C1468.92 188.059 1469.26 184.385 1471.6 184.051H1472.6C1476.27 184.051 1480.28 187.057 1483.96 187.057C1490.3 187.391 1496.65 188.393 1503.33 188.059C1510.34 189.395 1517.36 188.059 1524.37 186.389C1527.05 184.385 1529.72 184.385 1533.06 185.387C1537.73 184.385 1542.74 183.382 1547.76 182.38C1562.45 177.37 1566.46 161.336 1566.46 147.641C1567.13 139.625 1567.46 130.94 1564.46 123.257C1563.12 119.249 1561.45 114.906 1557.44 112.568C1555.77 112.568 1554.77 112.234 1554.44 110.564C1551.43 106.556 1546.75 104.885 1541.74 102.547C1533.73 99.5409 1525.04 100.877 1517.02 99.5409C1511.35 99.2069 1505.67 100.209 1500.32 100.877C1493.31 103.215 1485.63 104.551 1479.28 107.558C1472.93 110.23 1465.92 112.568 1459.91 116.576C1455.23 120.919 1451.89 125.929 1447.55 131.274C1445.21 135.95 1443.2 141.295 1440.53 145.971C1438.86 150.648 1437.53 155.992 1437.19 161.336C1436.52 165.679 1435.19 171.357 1435.19 175.7C1435.19 182.38 1436.19 188.059 1436.52 194.405C1436.52 200.084 1437.53 205.094 1438.86 210.105C1442.2 215.783 1444.21 221.462 1448.21 226.472C1451.89 232.485 1455.23 239.166 1459.91 245.512C1463.25 249.52 1467.59 253.529 1471.93 257.871C1478.61 262.214 1484.96 264.886 1492.64 266.89C1498.32 268.226 1504.33 269.896 1510.34 268.894C1519.03 268.894 1526.71 263.884 1532.06 257.203C1537.07 253.195 1540.07 246.514 1541.41 240.502C1542.74 232.485 1540.07 226.472 1535.06 220.46C1534.06 219.124 1534.06 217.788 1533.73 216.785C1533.06 215.115 1532.06 214.781 1530.72 213.111C1528.05 209.771 1523.04 208.101 1518.36 209.103C1511.35 210.105 1505 211.775 1498.65 215.115C1493.31 217.454 1486.63 219.124 1481.62 222.798C1478.95 223.8 1475.94 225.804 1472.93 225.804C1471.26 225.804 1469.93 225.136 1468.92 223.466C1466.92 217.788 1473.93 217.788 1476.94 216.785C1479.28 215.783 1482.62 213.779 1484.96 212.109C1485.63 211.775 1483.96 210.105 1483.96 209.771C1483.96 205.094 1484.96 200.418 1484.96 195.742C1484.96 195.074 1484.62 194.405 1483.96 194.405C1479.28 193.403 1473.93 192.067 1469.26 190.063ZM1511.35 147.975V147.641C1513.35 141.963 1506.67 134.948 1500.99 132.944C1499.32 132.944 1493.31 136.284 1492.64 137.954C1491.64 139.959 1492.64 143.633 1492.64 146.639C1495.65 148.977 1498.65 149.645 1502.66 149.979C1506.34 150.648 1509.34 149.979 1511.35 147.975ZM1492.31 209.103C1497.32 208.101 1502.66 204.76 1508.01 202.756C1509.68 202.756 1511.35 202.088 1513.35 202.088C1515.02 202.088 1517.02 202.756 1518.36 202.756C1526.71 202.756 1535.73 205.094 1539.07 213.111C1540.74 216.785 1542.74 220.46 1544.75 223.8C1545.42 224.802 1546.75 225.804 1547.42 226.806C1548.76 234.823 1547.76 243.508 1544.75 252.193C1542.41 259.541 1529.05 269.896 1522.03 273.237C1518.36 275.241 1511.01 276.243 1506.67 276.243C1501.66 276.243 1497.32 274.239 1492.31 273.237C1487.96 271.9 1483.62 271.232 1479.28 268.894C1473.93 267.224 1469.26 264.886 1465.92 260.209C1462.24 257.871 1459.24 253.529 1455.23 252.527C1453.22 252.193 1454.23 249.52 1452.89 249.186C1445.88 236.159 1436.52 223.8 1431.51 210.105C1430.18 205.094 1430.18 200.084 1430.18 195.074C1427.5 185.387 1428.17 174.698 1430.18 164.677C1431.18 152.986 1434.18 141.963 1440.2 132.276C1442.2 127.265 1445.21 122.255 1449.22 118.247C1454.23 112.234 1461.91 106.556 1469.93 104.551C1482.29 99.8749 1494.64 93.1943 1508.01 93.1943C1509.34 93.1943 1511.01 93.5284 1512.35 93.5284C1521.37 94.8645 1532.06 93.5284 1540.74 96.5346C1544.75 97.8708 1548.76 99.5409 1552.77 101.879C1555.77 103.215 1558.44 106.222 1561.45 107.558C1564.46 109.228 1566.13 111.232 1567.13 113.57C1573.48 124.259 1575.48 136.952 1573.14 149.645C1571.81 158.664 1570.47 168.351 1566.13 176.368C1558.44 188.393 1543.08 191.065 1530.72 191.065C1524.37 194.405 1517.36 194.405 1510.34 194.405C1505 194.405 1499.65 194.405 1495.31 196.41C1493.64 196.41 1492.31 195.742 1491.64 197.078C1490.97 198.08 1490.97 201.086 1490.97 202.756C1490.97 204.76 1490.97 207.433 1492.31 209.103ZM1483.96 147.975V147.641C1484.62 146.973 1486.63 146.973 1486.63 145.303C1486.63 142.965 1483.62 139.625 1484.62 136.618C1486.63 132.944 1490.3 130.94 1493.64 129.27C1496.31 128.268 1499.32 126.597 1502.33 127.265C1504 127.933 1505.67 128.936 1507.34 130.272C1509.68 131.942 1512.01 133.946 1514.35 135.282C1515.35 136.952 1516.02 138.956 1517.02 141.295C1518.36 143.967 1521.03 148.977 1518.03 152.652C1514.02 155.658 1509.34 157.662 1504.33 157.662C1501.66 157.662 1498.65 156.994 1495.65 155.324C1490.97 153.988 1486.29 152.986 1483.96 147.975Z" fill="black"/>
<path d="M1304.81 117.913C1303.14 115.574 1301.14 117.245 1300.14 118.247C1296.46 121.253 1292.12 123.257 1289.11 125.929C1283.44 130.94 1280.43 136.952 1276.76 142.297C1276.09 146.973 1273.75 150.982 1273.42 155.324C1274.75 168.351 1287.78 177.37 1300.14 177.37C1303.14 177.37 1306.15 177.37 1308.15 177.036C1310.83 176.368 1312.16 175.366 1314.17 174.364C1314.83 173.362 1315.84 172.694 1317.17 172.694C1318.84 172.694 1321.18 174.698 1321.18 176.368C1321.85 178.706 1319.51 179.374 1317.84 180.376L1315.17 183.049C1310.16 187.057 1305.15 193.069 1303.81 200.084C1303.14 201.754 1301.81 202.088 1301.81 204.092C1300.81 206.097 1301.14 209.103 1300.14 211.775C1299.14 213.111 1299.14 215.115 1299.14 216.786C1298.13 218.79 1297.13 220.46 1296.46 222.13C1295.13 227.809 1297.13 233.821 1297.8 239.166C1302.14 247.85 1310.83 259.541 1321.18 259.541C1322.85 259.541 1324.86 259.207 1326.86 258.205C1348.57 249.521 1349.24 238.498 1351.24 217.454C1352.58 208.101 1353.25 197.412 1355.25 188.059C1355.25 185.721 1356.25 183.383 1355.25 181.044C1354.58 180.042 1354.58 178.706 1355.25 178.372C1355.59 175.7 1357.59 174.364 1359.26 174.364C1361.27 174.364 1362.94 175.7 1362.94 178.372C1361.6 186.389 1359.93 194.406 1359.26 202.756C1359.93 206.765 1358.26 209.771 1358.59 213.779C1358.26 220.794 1355.59 227.475 1355.59 234.489C1355.59 238.497 1355.25 243.174 1352.25 246.18C1351.58 248.184 1351.24 250.189 1350.24 252.193C1349.24 252.527 1348.57 253.195 1349.24 253.195C1349.24 253.529 1350.58 254.197 1351.24 255.199C1352.25 255.533 1353.25 256.535 1354.58 257.203C1356.92 259.541 1359.93 259.541 1362.94 260.878C1369.28 263.216 1375.96 267.224 1383.31 267.892H1397.34C1403.69 267.892 1408.36 265.22 1411.37 259.541C1419.05 248.518 1421.72 239.5 1425.4 226.472C1425.06 211.107 1411.37 209.103 1399.01 211.107C1395 212.109 1392 208.769 1395 205.094C1406.69 193.069 1417.72 178.372 1420.39 160.668C1422.39 152.986 1421.39 144.969 1419.05 136.952C1418.38 135.282 1416.71 134.28 1416.38 132.276C1413.37 128.936 1409.37 125.929 1404.69 123.591C1400.35 121.921 1395 120.251 1388.99 120.251C1384.98 119.583 1380.97 119.583 1376.3 119.583C1367.28 119.249 1355.25 119.583 1350.24 128.268C1344.56 131.942 1344.23 138.957 1337.55 141.295C1336.55 141.963 1335.54 141.963 1333.87 140.627C1332.54 137.954 1330.53 134.948 1328.86 131.942C1324.86 127.265 1318.84 124.259 1313.83 121.253C1310.83 119.583 1307.15 119.583 1304.81 117.913ZM1279.43 125.261C1283.1 120.251 1289.11 118.247 1293.46 114.906C1297.8 112.568 1302.48 112.234 1306.82 110.564C1307.82 110.564 1308.82 110.564 1309.16 111.232C1312.16 112.568 1314.83 114.906 1317.84 116.242C1325.52 117.913 1329.87 125.929 1335.88 131.274C1338.22 132.276 1339.55 129.27 1340.56 127.934C1346.9 115.24 1358.93 112.234 1371.29 112.234C1375.96 112.234 1380.64 112.568 1384.98 113.236C1400.68 113.236 1410.7 116.242 1420.72 128.268C1426.07 136.618 1427.4 145.303 1428.41 154.656C1429.07 156.66 1428.41 158.33 1428.07 159.666C1426.4 163.675 1427.4 168.351 1426.07 172.36C1423.73 176.368 1421.39 181.044 1419.39 185.387C1417.38 189.395 1414.38 192.067 1412.04 195.742C1411.37 198.08 1409.37 200.418 1407.36 202.088C1409.7 203.09 1413.37 204.092 1415.38 204.76C1419.39 205.094 1422.39 207.433 1425.06 210.105C1435.42 220.46 1432.08 230.815 1428.07 242.506C1426.4 249.52 1422.39 255.533 1419.05 262.214C1415.38 268.894 1408.36 271.901 1402.02 274.239C1400.68 274.907 1399.34 275.241 1397.67 275.241C1395.34 275.241 1393 274.573 1390.66 274.239C1384.65 274.239 1378.63 275.241 1373.29 272.235C1369.95 271.232 1366.28 270.23 1363.27 268.226C1356.25 265.22 1348.57 263.216 1343.56 257.871C1342.89 257.871 1341.56 258.205 1341.22 259.207C1338.55 260.209 1336.55 261.212 1333.87 262.548C1330.53 263.884 1328.53 266.89 1324.86 267.224C1312.16 268.226 1302.48 259.207 1296.13 249.521C1290.45 245.512 1291.45 239.166 1289.11 233.821C1287.11 230.815 1288.45 227.809 1289.11 224.802C1289.45 219.124 1292.45 213.111 1293.46 207.433C1295.13 202.756 1295.46 198.08 1297.13 193.403C1298.13 191.065 1300.14 188.393 1301.81 186.389C1303.81 184.385 1299.47 184.385 1299.14 184.051C1289.11 184.385 1279.09 178.706 1272.41 171.691C1271.75 170.689 1271.41 169.687 1270.74 169.353C1269.74 165.679 1267.4 162.673 1265.4 159.666V156.994C1267.4 145.303 1274.42 135.282 1279.43 125.261Z" fill="black"/>
<path d="M1220.24 219.792C1220.9 226.472 1219.57 232.485 1220.9 238.497C1222.91 245.178 1229.59 249.186 1235.6 253.195C1237.61 255.199 1241.28 255.199 1243.62 252.527C1246.62 248.518 1249.63 243.508 1250.63 239.166C1253.64 230.815 1254.64 222.13 1258.32 213.779C1258.65 208.769 1260.65 203.09 1261.66 198.08C1262.32 192.067 1261.32 186.389 1262.32 180.376C1262.32 179.374 1261.66 178.372 1261.66 177.036C1261.66 174.364 1261.66 171.691 1261.32 168.685C1259.99 160.668 1251.64 155.324 1244.62 151.65C1242.28 151.316 1239.61 150.648 1236.94 150.648C1232.6 150.648 1228.25 151.984 1226.58 156.66C1224.24 164.677 1224.91 172.36 1224.24 180.042C1220.9 193.069 1220.24 206.097 1220.24 219.792ZM1235.6 124.259H1235.94C1241.28 124.259 1247.29 120.919 1250.63 117.245C1257.31 110.564 1254.31 99.2069 1250.3 91.8583C1248.63 90.8562 1246.96 90.1881 1244.95 90.1881C1241.95 90.1881 1238.61 91.8583 1236.6 93.8624C1231.59 96.8687 1226.58 100.877 1226.58 107.558C1226.58 109.228 1226.92 110.23 1226.92 111.232C1226.58 117.245 1228.59 124.259 1235.6 124.259ZM1268.34 177.036C1270.01 184.385 1269 193.069 1267.33 200.418C1265.33 210.105 1262.99 219.792 1259.99 229.813C1258.32 239.5 1255.31 250.189 1247.63 257.203C1244.62 261.212 1239.94 261.212 1235.6 261.212C1234.93 261.212 1233.93 260.878 1233.6 260.878C1226.92 255.533 1217.9 251.525 1214.22 243.174C1213.89 238.497 1211.89 233.821 1213.22 228.477C1213.89 218.79 1213.89 208.769 1214.89 198.748C1215.23 193.403 1215.23 187.391 1216.9 182.38C1217.9 170.689 1214.22 156.994 1224.24 147.975C1226.92 145.303 1230.93 143.967 1234.6 143.967C1236.94 143.967 1238.94 144.635 1240.61 145.303C1249.63 145.303 1257.31 152.652 1263.33 158.664C1264.33 159.666 1265.33 160.668 1265.33 161.671C1266.33 166.347 1269 171.357 1268.34 177.036ZM1221.24 119.249H1220.9C1218.23 110.564 1218.9 101.879 1223.91 94.8645C1225.58 93.8624 1226.58 91.8583 1228.59 90.8562C1232.6 88.518 1236.6 84.8436 1241.61 83.8415C1246.62 82.8394 1252.3 86.1797 1255.64 90.5221C1257.65 94.5305 1259.32 98.5389 1260.65 102.547C1261.32 105.553 1260.65 107.558 1260.65 110.23C1260.65 110.564 1259.99 112.234 1259.32 112.568V114.906C1257.65 119.249 1255.64 122.255 1251.64 124.259C1250.3 125.261 1248.3 126.597 1246.62 127.934C1242.95 130.272 1239.94 131.274 1234.93 131.274C1227.92 132.276 1221.91 123.591 1221.24 119.249Z" fill="black"/>
<path d="M1192.29 246.514C1197.3 242.506 1203.32 239.166 1206.32 233.821C1208.33 230.815 1208.33 226.806 1208.99 223.466V219.124C1208.33 211.775 1204.32 205.095 1199.97 199.082C1195.97 191.399 1190.62 184.385 1184.28 178.706C1181.27 176.368 1176.93 174.698 1174.92 171.692C1172.58 170.021 1169.58 169.353 1166.91 169.353C1157.89 169.353 1125.82 178.372 1120.48 181.712C1117.8 183.383 1119.81 186.389 1118.47 189.395C1118.14 191.733 1116.47 192.735 1114.8 192.735C1112.46 192.735 1110.12 191.065 1109.79 188.059C1109.79 186.389 1109.45 184.385 1108.78 183.049C1108.78 177.37 1117.47 174.364 1121.48 172.694C1128.49 170.689 1135.51 169.353 1142.19 166.347C1144.86 165.345 1147.87 165.345 1150.2 163.675C1157.22 157.662 1160.89 148.977 1165.9 141.295C1168.58 137.954 1170.58 135.282 1173.59 131.942C1176.59 126.597 1181.6 123.257 1184.61 118.247C1188.28 113.57 1190.62 107.558 1193.29 103.215C1196.3 98.5389 1199.97 93.8625 1200.64 87.8499C1200.64 83.1735 1199.97 78.8311 1199.97 73.8207C1200.64 64.4678 1195.97 56.1171 1190.29 50.1045C1186.61 43.4239 1181.27 38.7475 1175.59 34.7391C1170.58 30.3967 1164.23 28.3926 1157.89 26.3884C1152.88 22.7141 1146.2 21.0439 1140.18 20.0418C1138.18 19.3738 1136.18 19.0397 1134.5 19.0397C1132.5 19.0397 1130.83 19.3738 1129.16 20.0418C1114.8 22.7141 1100.77 28.3926 1088.07 34.0711C1078.05 37.4114 1067.36 39.4156 1059.35 45.7621C1051.67 51.1066 1044.65 57.1192 1036.63 62.1296C1033.96 65.1359 1032.96 68.8102 1031.96 72.1505C1030.62 75.1568 1030.62 77.829 1029.95 80.8353C1029.62 82.8395 1030.62 84.5096 1029.95 86.1798C1029.62 93.8625 1029.62 101.545 1030.62 109.228C1032.63 114.906 1036.97 119.249 1041.64 122.255C1049.33 130.272 1060.35 132.944 1071.37 133.946C1074.71 133.278 1078.72 134.614 1082.4 134.614C1084.07 134.614 1086.07 134.28 1087.74 132.944C1094.09 127.934 1098.76 121.253 1103.44 114.906C1107.78 107.558 1105.11 100.209 1102.1 93.5284C1101.77 90.8562 1101.77 88.518 1099.77 86.1798C1098.76 83.8416 1097.76 80.1672 1100.43 78.8311C1104.44 77.495 1108.78 79.1651 1112.46 79.8332C1116.47 80.1672 1119.14 80.8353 1122.48 81.8374C1123.82 81.8374 1125.15 83.1735 1125.15 84.5096C1125.49 87.5159 1122.15 88.518 1119.81 88.518C1116.47 87.8499 1113.8 88.518 1110.45 87.5159C1105.78 86.1798 1109.45 91.8583 1109.79 94.5305C1111.46 98.5389 1113.46 102.547 1112.79 106.556C1113.46 109.228 1113.46 110.564 1112.46 112.568C1107.78 119.583 1104.44 125.929 1099.1 131.274C1095.76 135.95 1091.08 139.959 1085.74 141.963C1079.39 142.965 1072.38 139.959 1066.36 139.959C1064.02 139.625 1062.35 141.295 1060.35 142.297L1060.02 142.965C1056.34 145.303 1052.33 147.975 1049.33 151.65C1044.32 157.662 1038.97 162.673 1033.63 168.685C1028.28 179.374 1023.61 190.063 1021.27 201.754C1020.93 205.763 1021.27 209.103 1021.94 212.777C1022.6 215.115 1023.61 216.786 1024.28 218.79C1024.94 220.46 1025.61 222.13 1026.61 223.8C1026.95 225.804 1028.28 226.472 1028.95 227.809C1030.62 231.817 1033.96 234.823 1036.97 237.495C1054.34 251.525 1090.08 267.892 1112.46 267.892C1116.47 268.226 1120.48 269.896 1125.15 269.896C1129.49 269.896 1134.51 268.226 1139.18 268.226C1151.21 266.89 1164.23 264.218 1175.92 259.207C1180.6 254.197 1187.28 250.523 1192.29 246.514ZM1216.34 217.788C1217.01 227.809 1214 239.5 1205.32 245.512C1201.65 248.184 1198.3 250.523 1195.3 253.529C1193.63 255.199 1191.62 255.533 1190.29 256.535C1185.28 260.878 1179.6 264.218 1174.92 267.892C1168.58 270.898 1161.23 271.901 1154.88 273.905C1151.21 274.907 1148.2 273.905 1144.86 274.907C1138.51 276.911 1131.5 276.911 1125.15 277.913C1120.81 277.913 1116.47 275.909 1112.46 274.907C1105.11 273.905 1098.1 273.905 1091.75 272.235C1089.08 271.901 1087.07 270.23 1085.07 270.23C1084.07 269.896 1083.06 269.896 1081.73 268.894C1071.37 264.218 1061.35 260.878 1051.33 255.533C1046.66 253.195 1041.31 250.523 1036.63 247.182C1029.29 240.502 1018.26 229.145 1017.26 219.124C1017.26 216.118 1014.25 213.111 1013.92 210.105C1012.92 208.101 1012.92 205.095 1012.92 202.756C1015.26 192.067 1019.93 182.38 1023.61 171.692C1024.28 170.689 1024.94 168.685 1025.61 167.683C1031.96 160.669 1038.97 154.656 1044.32 146.973C1047.32 143.633 1050 141.295 1052.67 138.957C1053.67 138.957 1053.67 138.288 1053.67 138.288C1053.67 136.952 1051.67 136.952 1051.33 136.618C1045.65 134.28 1041.31 131.942 1037.64 127.934C1033.63 124.927 1028.28 122.255 1025.95 117.913C1023.61 109.228 1022.6 99.541 1022.94 90.5222C1022.94 83.1735 1022.94 76.1589 1025.61 69.1442C1025.95 66.806 1026.61 64.4678 1027.95 62.1296C1031.96 57.1192 1038.3 54.1129 1042.98 50.1045C1054.34 41.0857 1065.36 32.4009 1079.39 29.3946C1083.4 28.7266 1087.07 27.7245 1090.75 25.7203C1101.44 19.3738 1119.47 14.6973 1131.5 13.0272C1133.5 13.0272 1136.18 11.023 1138.51 10.689H1139.18C1141.19 11.023 1143.19 12.6931 1145.53 13.0272C1149.2 14.0293 1153.21 14.0293 1156.88 16.7015C1158.22 17.7036 1160.89 18.7057 1162.56 19.3738C1168.91 21.712 1175.92 24.0502 1181.27 29.3946C1185.28 34.0711 1188.28 39.4156 1193.63 43.4239C1196.3 45.7621 1200.64 47.4323 1202.31 51.4407C1203.32 55.783 1205.32 59.7914 1206.32 64.1338C1206.99 68.8102 1206.99 73.8207 1207.32 78.8311C1207.32 81.5034 1209.33 84.5096 1208.99 87.5159C1207.32 93.8625 1204.32 99.541 1200.64 105.554C1197.64 111.232 1194.63 117.913 1190.29 122.255C1181.27 133.946 1171.92 144.969 1164.9 156.994C1164.23 158.664 1162.56 160.669 1161.56 161.671C1161.56 161.671 1161.9 162.005 1161.9 162.339C1164.9 162.339 1168.91 161.337 1172.58 162.339C1175.92 162.673 1177.59 166.347 1179.93 168.351C1181.27 169.353 1183.61 169.687 1184.61 170.689C1187.28 172.694 1190.62 175.366 1192.29 177.37C1197.64 183.049 1201.31 189.395 1205.32 195.074C1207.32 199.082 1209.33 204.092 1213 207.433C1213.34 208.101 1214 208.769 1214.67 209.771C1215.34 212.777 1216.01 215.115 1216.34 217.788Z" fill="black"/>
<path d="M894.599 105.554H893.931C890.925 105.554 888.921 106.222 885.246 105.554C880.57 106.556 875.225 106.222 870.215 107.224C865.872 108.56 861.196 109.228 857.522 112.568C856.52 113.236 856.186 113.236 855.518 113.57C853.179 114.238 849.505 113.57 849.505 110.564C849.505 109.562 850.507 108.56 851.175 106.556C852.511 102.547 852.511 97.8708 856.186 95.5326C859.526 86.8478 862.198 77.495 864.202 68.8102C864.536 61.1275 857.188 55.1149 850.173 55.1149C845.831 54.1129 842.824 56.117 839.484 58.1212C830.799 63.1317 825.455 72.1505 821.781 81.5033C820.11 83.8416 818.106 87.5159 818.106 90.5221C817.772 93.5284 819.108 95.5326 819.776 98.5389C819.776 102.547 813.096 104.551 810.089 103.215H808.085C801.405 104.551 795.058 104.885 788.377 104.551C786.707 104.551 784.369 104.885 782.699 105.554C779.693 104.885 775.684 104.885 772.344 106.222C763.659 107.558 749.296 114.238 746.958 123.591C746.29 125.261 745.288 127.265 744.62 128.936C742.949 132.944 743.283 138.288 745.956 142.297C746.29 143.633 747.626 143.967 748.962 144.969C756.979 149.645 765.663 153.988 775.016 156.66C784.369 157.662 793.388 152.986 801.405 149.98C803.075 149.645 805.079 148.977 806.081 149.645C806.749 151.65 805.413 153.988 804.077 154.656C802.073 155.992 799.066 156.66 798.064 158.33C797.396 159.666 796.728 161.337 795.392 162.339C793.388 165.679 791.384 168.685 791.384 172.36C788.043 180.376 786.373 188.393 783.701 197.078C782.699 199.082 781.363 201.754 780.361 204.76V209.103C779.693 216.786 776.686 223.466 775.684 230.481C775.016 235.491 776.686 240.502 777.354 245.512C777.689 247.182 782.699 257.537 783.701 259.207C787.375 262.882 800.069 270.23 805.079 270.23C812.094 270.23 819.108 268.894 826.123 267.224C831.801 267.224 836.478 263.884 841.488 261.212C846.499 257.871 853.179 256.201 857.188 250.523C861.53 243.508 867.209 233.821 865.204 224.802C864.536 222.798 863.2 220.794 862.198 218.79C860.194 213.111 855.518 210.105 850.507 208.101C848.503 206.765 845.497 205.763 842.49 206.097C839.484 207.433 837.48 209.103 833.806 209.103C825.455 211.107 816.77 213.779 810.089 219.124C809.087 219.792 808.419 220.46 808.085 219.124C806.749 218.79 805.413 216.117 809.087 213.111C813.096 209.771 821.78 206.097 827.793 203.09C829.797 202.756 829.797 201.086 829.797 199.082C830.131 193.069 834.808 188.059 835.476 181.712C835.476 180.042 837.48 177.37 837.48 175.7C837.48 170.689 837.814 164.677 838.482 158.664C838.816 156.66 838.816 150.982 842.49 150.982C851.843 154.656 861.53 153.988 871.217 153.988C873.221 153.988 875.893 154.656 878.232 154.656C879.902 155.324 881.906 153.988 883.91 153.988C889.923 153.988 895.935 154.656 900.946 150.982C903.952 149.645 907.626 148.977 909.63 146.639C916.645 138.288 914.641 125.261 908.628 117.245C906.29 114.238 903.952 111.232 900.946 109.228C899.61 108.56 897.939 108.56 896.937 107.224C895.935 106.556 894.933 106.222 894.599 105.554ZM861.196 100.877V101.545H862.198C866.541 100.209 871.885 99.541 876.227 99.2069C881.238 99.541 886.248 98.5389 890.925 99.541C892.929 99.541 893.931 99.2069 895.935 99.2069C910.967 105.553 924.328 123.257 920.319 140.627C918.649 149.645 910.633 153.988 902.616 157.662C899.944 159.666 896.937 160 893.931 160.668C881.906 163.675 868.879 159.666 856.52 161.337C854.515 161.671 852.511 160.668 850.507 160.668C848.837 161.337 848.503 160.668 846.499 160C846.499 160 845.831 160 845.831 160.668C844.829 165.345 844.495 170.689 843.492 175.7C842.49 183.049 839.818 190.063 838.482 197.412C837.814 200.084 839.818 200.084 841.822 199.082C844.829 198.748 847.501 198.08 850.173 200.084C851.175 200.418 852.511 201.754 854.181 202.756C860.194 205.763 864.536 209.771 868.879 215.115C870.215 218.79 872.219 222.798 872.219 226.806C871.885 235.491 869.213 244.51 864.536 251.525C863.2 252.527 862.198 254.197 861.196 256.201C855.518 261.212 847.501 264.886 840.82 268.894C835.476 272.235 828.461 273.237 822.783 274.907C818.106 275.909 814.098 276.911 809.755 277.245C808.085 277.245 805.413 275.909 804.077 275.909C801.071 275.909 797.396 276.911 795.058 273.905C792.052 270.23 786.707 270.23 783.367 267.224C780.361 263.216 777.354 259.207 774.682 255.199C771.008 247.182 768.67 238.498 769.338 229.813C769.672 223.8 771.676 219.792 773.346 214.781C774.682 208.769 774.682 204.76 775.016 200.084C777.355 194.072 777.689 189.395 780.361 184.385C781.363 177.036 784.369 170.689 786.707 162.673C786.707 161.337 785.037 162.339 783.701 162.339C772.678 164.677 761.655 160 753.304 153.654C749.964 151.65 745.956 150.982 743.283 148.977C739.275 144.969 737.271 138.957 738.273 133.946C738.273 130.94 739.275 128.268 739.943 125.261C740.277 123.257 740.945 120.919 742.949 118.247C750.966 104.885 768.002 98.5389 783.701 99.2069C785.705 99.2069 787.375 97.8708 788.377 97.5368C795.392 97.5368 802.407 97.8708 809.087 96.5347C810.089 96.5347 811.426 95.5326 811.426 94.5305C812.094 91.8583 811.426 88.852 812.762 86.8478C815.768 80.1672 817.104 73.1526 820.778 67.14C825.455 62.1296 829.797 57.1191 835.81 53.4448C838.482 53.1108 839.818 50.1045 842.824 48.4344C846.499 48.1003 850.507 48.4344 854.515 48.4344C856.52 48.4344 857.522 48.4344 859.526 50.1045C864.202 53.4448 868.879 58.1212 871.217 64.1338C871.217 69.1442 868.879 74.4887 867.543 80.1672C867.543 81.5033 866.541 83.1735 866.541 84.5096C865.872 90.5221 863.2 95.5326 861.196 100.877Z" fill="black"/>
<path d="M635.655 143.967C626.636 159.667 620.958 175.7 622.294 193.07C622.294 198.748 621.626 204.761 623.63 210.105C623.964 211.775 623.63 212.777 624.632 213.779C628.306 219.792 629.309 227.475 635.321 232.485C643.338 245.178 655.029 256.535 669.726 262.214C675.071 263.55 680.415 264.886 685.76 264.886C688.098 264.886 690.436 264.886 692.774 264.218C693.776 264.886 694.778 264.218 695.781 263.884C697.785 263.884 700.457 263.884 701.459 263.216C704.799 261.212 709.142 260.21 712.482 259.207C719.163 257.203 723.505 253.529 726.511 248.519C728.85 245.178 730.854 241.504 731.188 237.496V230.481C731.856 227.809 731.856 226.473 731.188 224.468C730.186 221.462 728.181 217.788 726.177 215.784C721.167 212.109 715.488 211.775 710.144 209.103C706.47 208.769 703.129 206.765 698.787 206.097C695.447 206.765 691.438 205.763 687.43 206.097C686.762 206.097 686.094 206.097 684.758 205.763C680.749 205.095 676.741 206.097 672.732 206.097C664.382 208.769 655.363 209.771 648.682 213.779C645.676 215.116 642.67 211.775 644.006 208.769C645.342 206.765 647.346 205.763 650.018 205.095C651.355 205.095 656.365 203.09 658.035 202.756C660.039 202.088 662.044 201.086 663.38 200.084C664.382 198.08 663.38 195.742 661.375 195.074C660.039 194.072 657.367 194.406 655.363 193.404C654.027 193.07 653.359 190.063 654.361 188.059C656.365 187.057 660.039 187.057 661.375 187.057C663.38 187.391 664.048 188.393 665.718 188.393C673.066 188.393 680.749 193.404 688.432 191.399C691.438 191.065 693.776 191.399 695.781 191.399C702.461 191.065 709.476 190.063 715.488 185.721C719.497 183.383 722.503 180.042 725.175 176.368C728.85 172.36 733.192 167.015 734.194 161.671C734.862 159.667 735.196 156.994 734.862 153.988C735.196 149.98 735.196 145.971 735.196 141.295C735.864 138.289 734.862 135.282 733.192 132.944C726.511 116.577 712.482 110.564 696.783 106.556C688.432 106.222 680.081 109.228 672.732 112.568C665.718 115.575 658.035 118.247 652.691 124.259C650.352 125.929 647.346 127.266 645.676 129.27C642.336 134.28 638.327 138.957 635.655 143.967ZM689.1 147.641C688.432 149.98 687.764 152.986 686.762 155.992C687.43 155.992 687.764 156.66 689.1 156.66C691.438 156.994 693.442 155.992 694.778 154.656C698.787 153.654 701.459 150.982 703.129 146.973C703.797 145.303 703.797 143.967 701.793 142.965C700.457 142.297 698.453 141.295 695.781 142.297C694.778 142.297 693.776 142.965 692.774 143.633C690.436 143.967 689.768 145.303 689.1 147.641ZM623.63 227.809C617.951 218.79 614.611 207.433 615.947 197.078C615.947 194.406 614.945 193.07 615.947 190.397V188.059C615.947 187.057 616.615 185.721 616.615 185.387C615.947 178.706 616.615 172.36 618.62 166.347C623.63 154.656 626.97 142.965 634.653 132.276C635.321 131.942 636.323 131.274 636.657 130.272C637.659 129.27 637.659 128.268 638.661 127.934C640.332 124.927 643.338 123.257 645.676 120.919C652.357 114.906 660.039 110.564 668.056 107.558C675.739 103.549 684.09 100.877 692.774 100.877C702.127 100.877 708.474 103.883 716.49 108.56C719.497 109.228 722.169 110.564 724.173 112.568C728.85 116.577 733.86 120.919 735.196 127.266C737.868 130.94 740.875 134.948 740.875 139.625C741.209 147.641 741.877 156.66 740.875 164.677C739.873 166.347 739.204 168.351 738.202 169.353C733.192 175.7 729.518 184.385 723.171 189.395C716.156 192.067 710.144 196.41 702.461 197.078C699.455 197.412 696.783 198.08 693.776 198.08C693.442 198.08 692.774 198.748 691.772 198.748C691.438 198.748 690.77 198.08 690.436 198.08C689.1 198.748 687.764 199.082 686.094 198.748C684.758 198.748 683.755 198.08 684.758 199.082C687.764 200.418 691.772 200.084 695.447 200.418C707.472 202.088 720.165 204.761 729.518 212.109C733.192 215.784 735.864 219.792 737.2 224.468C737.868 227.809 737.2 231.483 737.2 234.823C737.2 235.491 736.866 236.827 736.866 237.496C738.202 241.504 736.866 245.178 734.862 248.185C731.856 255.533 726.177 261.212 719.163 263.884C710.144 266.222 702.461 271.901 693.776 270.899H688.432C687.764 270.899 687.43 271.901 686.762 271.901C665.718 271.901 647.346 259.542 635.321 243.508C634.653 243.174 633.985 242.172 633.317 241.504C628.64 237.83 626.636 232.485 623.63 227.809ZM682.753 164.009C679.747 164.009 678.077 161.337 678.077 158.664C678.745 153.988 681.751 149.98 681.751 145.303C681.751 143.633 681.751 141.295 682.753 139.959C683.755 139.625 684.758 138.957 686.762 138.289C689.768 136.952 692.774 135.282 695.781 135.282C700.457 135.95 703.797 138.289 707.472 138.957H707.806C715.154 142.297 709.142 152.652 704.799 156.994C700.457 160.669 693.776 163.675 687.43 164.009C686.094 164.009 684.424 164.677 682.753 164.009Z" fill="black"/>
<path d="M523.99 199.082C523.322 200.418 522.654 202.088 521.986 203.09C521.652 205.095 522.654 205.763 523.322 206.097C523.99 206.765 524.992 206.765 525.66 207.433C529 208.769 531.673 211.107 532.007 214.781C532.007 215.115 532.007 215.783 532.675 216.118C534.679 213.111 536.349 211.107 537.351 208.769C535.013 206.765 533.343 205.095 530.67 204.76C527.998 203.09 525.994 201.086 523.99 199.082ZM549.376 165.345C548.374 162.339 549.71 159.666 552.716 157.662C558.395 154.656 562.403 149.98 568.416 146.973C579.105 141.963 585.785 133.946 590.796 124.259C594.136 116.243 590.128 106.222 583.781 100.877C580.107 98.5389 576.099 97.5368 573.092 94.8646C568.082 91.5243 562.403 94.5305 556.725 93.8625C555.389 93.8625 555.055 93.5285 553.718 93.8625C547.372 97.5368 544.7 104.551 541.693 110.23C540.691 116.242 538.687 121.921 538.019 127.934C538.019 127.934 538.019 128.268 538.687 128.936C539.689 130.94 540.357 132.276 540.357 134.28C539.689 137.954 535.681 144.969 531.673 142.965C530.67 142.297 529.668 141.295 528.666 140.627C527.998 138.957 528.666 136.952 528.666 135.95C528.666 134.948 529 133.946 529.668 132.276C530.67 131.942 529.668 130.94 530.67 130.272C531.004 121.921 534.679 114.238 536.349 106.556C536.683 104.551 537.351 101.879 538.019 99.541C542.361 93.5285 546.37 86.1798 549.71 79.1651C551.38 73.1526 554.387 68.1421 557.393 62.7977C561.401 53.1108 562.069 42.4218 558.395 32.4009C557.393 27.7245 556.725 22.38 554.387 18.0376C550.044 12.3591 527.33 7.34867 519.981 7.34867C515.639 7.34867 511.297 8.01672 507.288 10.0209C505.284 10.689 502.946 10.0209 500.274 11.023C499.272 11.023 497.601 12.6931 495.931 12.6931C495.263 13.0272 490.587 14.6973 490.253 15.0314C488.249 15.6994 486.578 18.0376 484.574 18.7057C479.898 20.7099 477.226 24.0502 474.219 26.7224C468.541 32.735 471.213 41.4197 474.219 48.1003C474.553 48.4344 475.555 49.4365 475.889 50.1045C478.562 50.4386 481.234 52.1087 483.572 54.4469C485.576 56.1171 488.249 58.1213 490.587 58.4553C492.925 59.1233 495.263 59.1233 497.601 59.7914C501.276 60.4595 499.272 64.4678 498.269 66.806C495.931 72.1505 493.259 77.829 493.259 84.5096C489.251 94.8646 490.253 106.556 489.251 117.245C489.251 122.255 488.249 127.934 487.581 132.276C487.581 138.957 484.574 144.969 483.572 150.648C482.904 152.652 482.236 153.988 482.236 155.992C482.236 156.66 482.904 156.994 482.236 157.662C481.568 160 481.234 162.339 479.898 164.677C479.564 170.689 478.228 176.368 477.226 183.049C475.889 188.393 476.558 194.406 475.555 200.418V205.095C476.558 207.433 477.56 209.771 478.228 211.775C478.562 212.777 479.898 212.777 480.566 212.777C483.572 212.777 487.246 211.775 488.249 213.779C488.583 215.115 488.249 216.118 487.581 217.454C487.581 217.788 486.578 218.79 485.242 219.124C484.24 219.792 482.904 220.46 481.234 220.46C477.56 221.462 474.219 220.46 470.545 220.794C465.535 222.798 459.522 222.798 454.846 226.806C454.178 227.809 452.507 227.809 451.171 228.477C450.169 228.477 449.835 228.811 448.165 229.813C447.831 230.815 447.831 232.485 447.163 233.821C446.161 237.829 446.161 242.172 447.831 245.512C448.833 246.514 448.833 248.184 449.835 249.187C450.169 250.523 451.839 252.193 452.507 253.195C452.841 253.529 452.841 254.197 453.843 255.199C454.846 256.201 457.184 256.201 458.854 257.203C459.522 257.871 460.858 257.871 461.192 258.205C467.539 262.548 474.219 264.886 481.234 264.886C482.904 264.886 484.24 264.218 485.576 264.886C487.246 264.886 488.249 265.22 489.251 265.22C498.938 263.216 509.292 262.214 518.645 258.205C527.998 254.197 531.672 243.174 529 233.821C529 229.813 529 226.472 528.666 222.13C527.998 217.454 526.996 216.118 524.992 212.777C522.654 209.771 517.977 210.105 514.637 209.103C512.967 208.769 511.631 206.765 512.967 205.095C512.967 204.76 513.301 204.092 513.969 203.09C513.969 202.088 514.637 201.086 514.637 200.084C515.973 197.078 517.977 195.074 517.977 192.067C518.645 191.065 517.977 190.397 518.645 189.395C518.979 187.057 521.652 185.721 522.654 183.383C522.654 182.38 522.654 180.042 523.99 178.706C525.994 176.368 531.004 177.37 531.004 180.376C531.004 185.387 528.666 188.393 526.996 192.067C527.664 192.067 527.664 193.069 527.664 193.069C532.007 197.412 538.019 202.088 544.7 201.086C546.37 201.086 546.704 201.086 547.372 201.754C548.374 202.088 549.71 205.095 548.374 206.097C544.7 211.775 540.691 216.786 535.681 220.794L535.013 221.462V233.487C535.681 235.491 536.683 237.495 536.683 239.5C536.683 242.172 536.683 244.51 536.349 246.18C536.349 247.182 536.349 249.187 535.681 250.189C535.013 252.193 533.677 253.529 533.677 256.201C534.679 257.203 536.683 257.871 537.351 259.207C538.019 261.212 538.019 263.884 539.689 265.22C542.361 267.892 543.698 270.23 546.704 270.898C548.374 270.898 549.71 269.896 551.38 269.896C559.063 270.23 566.412 268.226 575.096 267.224C576.098 267.224 577.101 266.222 579.105 266.222C582.779 266.222 586.119 266.222 588.792 263.884C590.128 263.216 591.798 263.216 593.134 262.548C593.802 262.548 594.136 261.212 594.804 260.878C595.472 260.21 597.142 260.21 597.81 259.541C600.817 257.203 602.821 255.199 605.827 253.195C607.163 252.193 608.499 251.525 608.833 250.189C612.842 240.836 612.842 233.487 601.819 229.813C598.813 228.477 595.472 228.143 592.132 228.143C589.126 228.143 585.785 228.477 582.779 229.813C582.111 229.813 582.111 228.811 581.109 228.477C580.775 227.809 579.773 226.806 580.107 224.802C584.115 214.781 587.79 187.057 579.105 178.372C576.767 175.366 575.43 171.692 572.424 169.687C568.082 167.683 562.403 167.683 558.061 167.015C557.393 166.347 556.391 167.015 555.389 167.683C553.384 167.683 550.712 167.015 549.376 165.345ZM589.794 220.46C596.808 221.462 604.825 220.46 610.504 225.804C613.51 228.477 618.186 231.483 618.854 236.827C619.522 240.502 618.854 244.51 617.184 248.184C617.184 253.863 609.502 259.541 605.493 262.548C596.808 269.896 586.787 273.237 576.099 273.905C573.092 274.239 570.086 274.239 568.082 275.241C561.401 277.245 555.389 275.909 549.376 277.245C547.706 277.245 546.37 277.913 544.7 277.913C542.361 275.241 538.687 273.905 536.349 270.898C534.679 267.892 532.007 264.886 530.67 261.212C530.67 260.878 529.668 259.207 529 259.541C527.664 260.21 524.992 261.212 523.99 262.548C517.643 266.89 510.295 268.894 503.28 270.23C496.933 271.901 491.589 270.898 486.578 272.235C485.576 272.235 485.242 271.901 484.574 271.901C476.558 273.237 468.541 268.894 459.856 266.89C458.186 266.222 457.184 265.22 455.514 263.884C452.507 261.212 449.835 259.541 446.161 257.203C443.155 253.195 440.148 249.521 439.146 245.178C439.146 243.508 439.48 243.174 439.48 242.172C437.81 236.827 439.48 231.483 442.486 226.472C444.825 224.468 446.829 221.462 449.835 220.46C454.177 216.786 459.856 216.786 465.535 213.779C466.871 213.111 468.875 214.781 468.875 212.109C468.541 202.756 468.875 192.067 469.877 183.383C470.545 180.376 469.543 177.37 469.877 175.366C471.881 172.36 471.881 168.685 472.883 165.679C473.551 164.677 474.219 162.673 474.219 161.671C474.219 150.982 479.898 141.295 481.234 130.94C481.234 124.259 482.904 118.247 482.904 112.568C482.904 110.564 483.572 109.228 483.572 107.558C483.572 106.556 482.904 105.554 482.904 104.551C482.236 101.545 482.904 98.5389 483.572 95.5326C485.242 86.8478 485.576 76.8269 489.251 68.1422C490.587 64.4678 486.578 64.4678 484.574 63.1317C480.566 61.1275 477.56 57.1192 472.883 55.783C469.877 54.4469 468.541 51.1066 466.871 48.1003C466.537 45.0941 463.864 42.7559 463.864 39.7496V30.3968C465.2 28.0585 470.211 21.0439 472.549 19.3738C473.551 18.0376 474.219 16.7015 475.889 15.0314C478.228 13.0272 481.234 10.689 481.568 10.0209C485.576 8.01672 491.255 7.01464 495.263 5.34449C502.946 3.00627 510.963 0 518.645 0C521.986 0 524.992 0.668072 528.666 1.0021C530.67 1.0021 531.672 2.00417 532.675 2.33822C533.677 3.00627 535.013 3.00627 535.681 3.00627C543.364 5.34449 551.38 6.6806 558.061 11.023C561.401 15.0314 562.403 20.7099 564.407 24.7182C565.075 27.7245 565.076 29.7287 565.41 32.735C568.082 40.4176 570.086 49.4365 566.412 57.4532C564.407 63.1317 561.401 68.8102 558.061 73.8207C556.725 77.829 555.055 81.5034 553.718 85.5117C553.718 86.1798 554.387 86.1798 555.055 86.1798H559.397C566.078 86.8478 573.76 84.5096 578.437 89.8541C581.109 91.8583 584.783 92.5264 587.79 95.5326C595.806 103.215 602.487 115.574 596.808 126.597C591.13 138.957 581.109 147.975 570.086 154.656C568.416 155.992 565.41 156.994 565.076 158.664C565.076 159.666 565.41 159.666 566.078 160C568.082 160.669 569.418 160.669 572.09 161.337C576.767 161.671 579.773 165.345 582.111 168.685C584.783 174.364 588.792 178.706 590.796 184.385C591.13 191.399 591.13 199.082 590.796 206.765C590.128 211.107 590.796 215.115 589.794 218.79C588.792 219.124 588.792 219.792 589.794 220.46Z" fill="black"/>
<path d="M385.346 174.698C384.344 176.368 385.012 179.374 385.012 181.712C383.676 184.385 383.341 188.393 383.341 191.399C383.341 191.399 383.676 191.399 384.344 191.065C386.348 190.063 388.352 188.059 391.024 186.389C392.36 185.387 395.033 183.382 398.039 183.382C399.041 183.382 399.375 183.048 400.043 182.38C396.035 180.042 390.356 177.036 385.346 174.698ZM350.941 185.387C350.607 190.063 349.938 194.071 348.936 198.748C351.943 217.788 355.617 234.489 368.644 249.186C372.318 252.527 376.661 255.533 380.669 258.205C383.676 259.541 387.016 260.209 390.022 260.209C393.028 260.209 396.035 259.541 399.041 259.207C402.381 257.871 405.388 257.871 408.394 255.533C410.064 255.199 411.066 253.195 413.07 252.527C418.081 250.188 420.753 245.178 424.093 240.836C425.763 237.829 427.768 235.491 429.438 233.487C431.442 229.813 431.442 226.806 431.776 223.466C432.444 219.792 432.444 215.783 432.444 212.109C432.444 208.769 431.776 204.76 429.438 201.754C428.436 200.084 425.429 198.748 423.759 197.078C419.751 193.403 414.072 189.395 408.394 190.063C406.39 189.729 404.385 189.395 402.715 189.395C395.701 189.395 387.016 199.75 383.676 204.76C382.339 206.765 380.335 208.435 377.663 208.435C376.661 208.435 375.659 208.101 374.657 207.433C373.655 203.09 375.659 198.748 376.661 194.405C376.661 194.405 376.661 194.071 377.329 194.071C376.661 190.063 377.663 185.721 377.663 181.712C378.331 175.7 377.329 170.689 377.663 164.677C378.331 162.673 379.333 161.67 380.335 161.336C383.342 160 385.346 161.671 387.35 164.009C393.696 171.357 398.039 174.03 407.058 177.036C417.079 179.374 427.768 171.691 431.776 162.673C434.448 158.33 435.784 152.986 434.448 147.641C431.776 143.633 428.436 139.625 425.429 135.95C424.093 134.948 423.091 135.282 421.755 134.948C417.747 131.942 412.736 133.946 407.726 131.942C404.051 131.274 400.043 132.276 396.035 131.942C393.696 131.274 392.026 131.274 389.354 131.942C383.676 132.944 377.329 136.618 372.653 141.295C368.644 143.967 364.97 146.973 362.632 150.982C358.957 155.992 355.951 160.668 354.949 166.347C354.615 167.683 353.947 168.685 353.947 169.687C353.279 171.357 353.279 172.359 353.279 173.362C351.609 177.036 351.609 181.044 350.941 185.387ZM345.93 222.13C344.594 216.117 343.258 210.105 342.924 204.76C341.588 197.412 343.258 190.397 344.594 183.382C344.928 175.366 347.934 167.683 348.936 160C351.609 153.654 355.951 147.641 360.961 142.297C364.636 138.956 367.308 135.282 372.319 132.944C376.327 130.94 379.667 127.933 384.344 125.929C394.365 123.591 405.053 127.265 415.074 125.261C429.438 121.253 432.444 138.288 440.461 145.971C442.465 148.977 442.465 152.986 441.797 156.66C441.797 161.336 438.791 164.677 436.452 168.351C434.448 172.693 431.442 176.368 426.765 179.374C423.759 181.712 419.751 183.048 416.076 184.051C424.093 188.393 431.776 195.074 437.788 202.756C439.793 206.765 438.79 211.775 438.79 215.783C438.79 217.454 439.793 219.124 439.793 220.794C439.459 223.8 439.459 227.474 438.79 230.481C436.452 236.827 430.774 242.506 427.099 249.186C422.423 256.535 413.738 260.209 406.724 264.886C403.717 266.222 401.045 265.22 398.039 266.222C392.36 267.224 387.35 267.892 382.005 267.224C376.661 265.22 373.321 260.209 367.976 258.205C356.953 249.186 350.941 234.823 345.93 222.13Z" fill="black"/>
<path d="M256.319 205.763C256.987 206.765 258.324 207.433 259.326 208.769C260.996 209.103 263.334 209.103 263.334 208.101C263.334 206.097 265.004 204.761 264.002 202.088C263.334 201.086 264.002 200.084 263.334 199.082C261.998 197.078 258.992 195.074 256.319 198.08C254.649 199.082 254.649 202.756 256.319 205.763ZM212.895 210.105C213.563 219.124 214.232 227.809 218.574 236.159C223.584 248.184 234.607 258.205 248.303 258.205C249.305 258.205 249.973 259.207 250.307 259.207C251.643 259.207 252.311 258.205 252.979 258.205C254.983 258.873 257.321 259.207 259.326 259.207C272.687 259.207 296.069 250.189 305.088 240.836L310.432 235.491C318.115 228.477 326.132 218.79 330.808 209.771C332.144 208.101 333.146 205.763 333.814 203.09C335.484 198.748 336.153 193.403 337.823 188.393C339.159 186.389 339.159 183.383 338.157 181.044C337.823 168.351 325.464 162.339 317.447 153.654C313.773 150.982 309.764 149.646 306.424 146.639C301.413 143.967 297.739 140.627 293.397 138.957C291.727 138.289 289.054 138.289 286.716 138.957C285.714 138.957 285.046 138.289 284.044 138.289C283.376 138.289 282.708 138.957 281.706 138.957C280.704 138.957 279.033 138.289 277.697 138.289C273.355 138.957 269.346 137.954 265.004 136.618C264.002 135.95 263.334 135.95 262.332 135.95C258.992 137.954 255.317 139.625 252.311 142.297C241.622 151.65 232.937 162.673 225.923 175.366C221.58 181.712 216.904 188.393 214.9 197.078C214.232 197.412 214.9 199.082 214.232 200.084C212.895 203.09 212.895 206.765 212.895 210.105ZM256.987 190.063C258.992 190.063 260.996 189.395 263 190.063C267.342 190.397 270.349 195.074 270.349 199.082C271.017 200.418 271.685 201.754 271.685 202.756C271.685 204.092 271.017 204.761 271.017 205.763C271.017 212.777 267.342 214.781 261.998 216.118C256.987 216.118 252.311 213.111 251.309 208.769C249.305 205.095 247.635 201.086 248.637 197.078C249.305 191.399 253.981 189.395 256.987 190.063ZM284.044 130.94H284.712C286.716 130.94 289.054 131.942 292.061 131.274C299.409 131.274 303.418 137.954 309.096 140.627C318.115 145.303 325.13 152.652 333.146 158.33C335.484 160.669 336.821 163.675 338.157 165.679C341.163 168.685 343.167 172.36 344.169 175.7C347.176 184.385 343.835 193.069 341.163 201.086C339.827 204.761 338.157 208.769 337.155 212.777C328.47 228.477 316.445 242.172 302.415 252.527C292.061 257.871 282.04 262.548 271.017 263.884C267.342 264.886 265.004 264.886 262.332 265.22C260.996 266.556 260.328 266.556 259.994 265.22C256.319 265.554 252.979 266.222 249.305 266.222C243.626 266.222 238.282 264.886 232.937 261.212C218.908 253.529 209.889 238.498 207.885 222.798C206.549 217.454 207.885 211.775 206.549 206.097C207.885 201.754 207.885 195.742 209.889 191.065C220.578 166.347 235.943 147.641 256.319 130.272C258.992 128.936 261.998 130.272 264.67 128.936C267.008 127.934 271.017 129.27 274.023 129.27C277.029 129.27 281.038 130.94 284.044 130.94Z" fill="black"/>
<path d="M7.42001 224.802C6.41792 227.809 6.08389 231.483 6.41792 234.489C8.08807 239.166 11.4284 243.174 13.7666 247.182C16.1048 252.193 23.1194 257.537 28.7979 257.537C31.8042 257.537 35.1445 256.201 38.4848 255.533C47.8377 253.195 55.8544 249.187 62.535 242.172C69.2156 234.489 77.2323 226.472 77.5664 215.115C77.2323 209.103 79.2365 203.09 78.2344 197.078C77.5664 194.406 78.2344 191.399 79.9046 190.397H80.2386C83.9129 188.393 86.9192 192.067 89.2574 194.072C92.9317 196.076 104.289 197.412 108.631 197.412C112.974 197.412 117.316 197.078 121.658 196.41C126.335 196.41 130.677 195.742 135.354 195.074C139.696 194.072 143.37 192.067 147.045 191.065C155.061 187.391 163.078 184.385 171.095 182.38C174.101 181.044 177.107 180.376 179.446 178.372C187.796 171.357 193.475 161.337 197.149 149.98C198.819 145.303 200.155 139.959 201.492 135.282C203.496 131.274 204.164 127.266 204.164 123.257C204.498 120.251 203.162 117.913 203.162 115.574C201.492 94.8646 185.458 72.4846 166.752 64.1338C160.74 60.4595 153.725 58.4553 147.045 57.4532C135.354 54.1129 125.333 53.1108 113.308 54.4469C110.969 54.4469 108.965 57.4532 106.961 58.1213C100.614 58.1213 94.6019 60.4595 88.9234 64.1338C84.581 65.804 79.9046 68.1422 75.8962 69.8123C66.8774 75.1568 56.5224 79.4992 45.8335 80.1672C42.4932 80.1672 39.4869 80.1672 37.1487 81.8374C33.1403 85.5117 31.8042 90.8562 29.8 95.5326C27.1278 100.877 27.7959 106.222 27.7959 112.234C27.7959 120.585 34.8105 126.931 42.8272 126.931C46.1675 126.931 49.5078 126.263 52.5141 124.259C54.1842 123.257 54.5183 121.253 56.5224 120.919C58.8607 120.251 63.5371 121.253 61.1989 124.259C58.1926 130.272 56.5224 136.952 53.5162 142.965C49.8418 150.648 42.4932 152.986 36.8147 158.33C30.1341 165.345 25.1236 173.362 20.1132 181.712C16.7729 187.391 15.4367 194.406 13.0985 201.086C10.0923 208.769 9.42419 217.454 7.42001 224.802ZM111.971 132.944C110.969 136.952 110.635 138.957 111.971 143.633C112.64 145.303 113.976 145.303 114.978 145.971C120.322 146.973 124.331 145.971 129.341 143.633C131.345 142.965 133.349 141.295 135.02 138.957C136.69 136.618 139.696 134.28 138.36 130.94C136.69 127.266 132.681 125.261 128.673 125.261C125.667 125.929 121.658 125.261 117.984 127.266C114.644 128.268 112.64 130.94 111.971 132.944ZM6.08389 246.514C3.74568 243.174 0.739409 239.166 0.405378 234.489C-0.930742 227.809 1.40747 221.462 2.07553 214.781C3.07762 211.107 3.74568 206.765 5.0818 202.756C6.08389 199.082 8.08807 195.742 9.09016 192.067C11.0943 188.059 11.0943 184.051 12.4305 180.042C15.4367 175.366 19.1111 170.689 22.1173 165.679C26.1257 160.669 29.8 154.656 34.8105 150.982C36.8147 149.646 37.8168 146.973 39.8209 145.971C41.1571 145.303 42.4932 144.969 42.8272 143.633C45.4995 141.963 46.5015 138.289 46.8356 135.282C47.8377 133.946 44.8314 134.28 43.4953 134.28C39.4869 134.28 35.4785 134.28 32.4723 132.276C28.7979 130.272 26.1257 127.266 24.7896 123.591C24.1215 121.253 23.7875 119.249 22.4514 117.245C17.7749 108.56 20.7812 99.207 24.1215 90.8562C26.1257 83.1735 30.8021 76.827 37.1487 72.8186C39.4869 71.8165 42.4932 73.1526 45.4995 73.1526C49.5078 73.1526 53.5162 71.8165 57.5245 70.1464C61.1989 69.1443 70.5517 65.1359 71.5538 64.4678C73.558 63.1317 77.5663 60.4595 79.2365 59.7914C88.2553 54.1129 99.2783 52.1087 108.965 49.4365C111.971 48.1004 114.644 47.0983 117.65 47.0983C123.663 47.0983 130.677 46.4302 136.69 47.4323C146.043 51.4407 156.731 51.4407 166.084 55.783C180.448 62.1296 192.473 73.4867 200.489 86.8479C202.494 88.852 203.162 91.5243 204.164 93.8625C204.498 96.2007 204.498 98.5389 206.168 100.209C207.17 101.879 207.504 104.551 208.172 106.556C208.84 110.564 210.176 114.238 210.51 118.247C210.51 120.919 210.176 123.591 210.176 125.929C210.51 130.94 207.504 134.28 207.17 138.957C203.496 156.326 193.475 181.712 175.437 188.059C163.746 191.399 152.055 195.742 140.364 200.418C129.675 202.756 118.986 204.426 107.963 204.426C101.951 204.426 95.938 204.092 89.9255 202.756C84.581 201.754 85.249 208.769 85.249 212.109C85.249 226.807 75.8962 239.166 65.2072 248.518C63.5371 249.521 62.535 251.525 61.1989 252.527C58.8607 253.529 55.8544 255.533 53.5162 256.535C43.8293 260.21 35.1445 263.884 27.4618 263.884C19.1111 263.884 12.0964 259.541 6.08389 246.514ZM103.955 146.973C102.953 142.965 104.957 138.957 103.955 134.948C101.951 130.272 105.959 127.266 109.633 125.261C114.978 121.253 119.654 119.583 126.335 119.583C132.681 118.247 138.36 122.255 143.37 125.929C148.047 131.274 144.038 136.952 140.364 141.295C138.36 143.633 136.69 146.639 134.351 147.975C129.341 150.982 123.328 152.986 117.984 152.986H117.65C115.646 152.986 113.976 152.986 111.971 151.65C111.637 151.65 110.969 150.982 110.635 150.982C108.631 149.98 104.623 149.98 103.955 146.973Z" fill="black"/>
</svg>
